<svg width="366" height="154" fill="none" xmlns="http://www.w3.org/2000/svg"><path opacity=".4" d="M0 151v-7.6a55.049 55.049 0 018-3.8c2.933-1.067 5.733-1.733 8.4-2V24.4c-2.667-.533-5.467-1.267-8.4-2.2-2.933-1.067-5.6-2.267-8-3.6V11h32.2c5.067 0 9.867-.2 14.4-.6 4.533-.4 9.733-.6 15.6-.6 6.4 0 12.6.467 18.6 1.4 6 .933 11.333 2.6 16 5s8.4 5.8 11.2 10.2c2.8 4.267 4.2 9.8 4.2 16.6 0 4.267-.8 8.267-2.4 12-1.467 3.6-3.6 6.8-6.4 9.6-2.667 2.8-5.867 5.133-9.6 7-3.6 1.867-7.533 3.2-11.8 4v.8c4.267.533 8.533 1.533 12.8 3 4.4 1.467 8.333 3.6 11.8 6.4 3.467 2.8 6.267 6.333 8.4 10.6 2.267 4.133 3.4 9.067 3.4 14.8 0 7.2-1.6 13.4-4.8 18.6-3.2 5.2-7.533 9.467-13 12.8-5.333 3.333-11.467 5.8-18.4 7.4-6.933 1.467-14.133 2.2-21.6 2.2-2.8 0-5.867-.067-9.2-.2l-10-.4c-3.333-.133-6.6-.267-9.8-.4-3.067-.133-5.667-.2-7.8-.2H0zm60.4-11.8c8.4 0 15-2.467 19.8-7.4 4.8-5.067 7.2-11.733 7.2-20 0-5.067-.8-9.2-2.4-12.4-1.6-3.333-3.8-5.933-6.6-7.8-2.8-2-6.133-3.333-10-4-3.867-.8-8.067-1.2-12.6-1.2H45.2v51.4c1.867.4 3.8.733 5.8 1 2.133.267 5.267.4 9.4.4zm-8.8-65.8c2.267 0 4.533-.067 6.8-.2 2.267-.267 4.4-.533 6.4-.8 5.2-2.133 9.4-5.4 12.6-9.8 3.2-4.533 4.8-9.667 4.8-15.4 0-8.4-2.2-14.533-6.6-18.4-4.4-4-10.067-6-17-6-2.933 0-5.467.067-7.6.2a65.063 65.063 0 00-5.8.6v49.8h6.4zM219.883 122v7.6c.133 2.133.333 4.4.6 6.8l13.8 2v7c-1.6.8-3.8 1.6-6.6 2.4-2.667.8-5.534 1.6-8.6 2.4a101.63 101.63 0 01-8.8 1.6c-2.934.533-5.534.933-7.8 1.2h-6.8c-1.334-3.067-2.134-6.133-2.4-9.2-.267-3.067-.467-6.8-.6-11.2h-1c-.667 2.667-1.8 5.267-3.4 7.8-1.6 2.4-3.667 4.6-6.2 6.6-2.4 1.867-5.267 3.4-8.6 4.6-3.334 1.2-7.067 1.8-11.2 1.8-4.4 0-8.467-.667-12.2-2-3.734-1.333-7-3.2-9.8-5.6-2.8-2.4-5-5.267-6.6-8.6-1.6-3.467-2.4-7.333-2.4-11.6 0-6 1.133-10.933 3.4-14.8 2.266-3.867 5.8-7 10.6-9.4 4.933-2.533 11.2-4.4 18.8-5.6 7.733-1.2 17.066-2.067 28-2.6 1.066-11.467.6-19.867-1.4-25.2-2-5.333-6.334-8-13-8-4.134 0-7.934.667-11.4 2l-9.4 24h-8.8a64.064 64.064 0 01-3.2-5.4 323.106 323.106 0 01-2.8-6.6c-.8-2.4-1.534-4.8-2.2-7.2a69.606 69.606 0 01-1.2-7c5.066-3.467 11.6-6.2 19.6-8.2 8-2 16.466-3 25.4-3 7.6 0 13.8.867 18.6 2.6 4.8 1.6 8.533 3.867 11.2 6.8 2.8 2.8 4.733 6.133 5.8 10 1.066 3.867 1.6 8 1.6 12.4 0 8-.2 15.267-.6 21.8-.267 6.4-.4 13-.4 19.8zm-45 15.4c2.8 0 5.2-.533 7.2-1.6 2-1.067 3.666-2.333 5-3.8 1.466-1.467 2.533-3.067 3.2-4.8.8-1.733 1.4-3.267 1.8-4.6v-20c-6.267.133-11.4.533-15.4 1.2-4 .667-7.134 1.8-9.4 3.4-2.267 1.467-3.867 3.4-4.8 5.8-.8 2.267-1.2 5.067-1.2 8.4 0 5.067 1.2 9 3.6 11.8 2.4 2.8 5.733 4.2 10 4.2zM298.611 151h-55.2v-7.8c4.4-2.133 8.8-3.733 13.2-4.8V17.2l-15.2-1.6V7.8c1.733-.8 4.133-1.6 7.2-2.4a97.718 97.718 0 019.8-2c3.6-.667 7.133-1.2 10.6-1.6 3.6-.533 6.8-.933 9.6-1.2h6.8v137.8c4.4 1.067 8.8 2.667 13.2 4.8v7.8zm66.406 0h-55.2v-7.8c2-1.067 4.067-1.933 6.2-2.6a72.76 72.76 0 017-2.2V65.2l-13.2-1.6v-7.8c2-.8 4.467-1.6 7.4-2.4 3.067-.8 6.267-1.467 9.6-2 3.334-.667 6.6-1.2 9.8-1.6 3.2-.533 6-.933 8.4-1.2h6.8v89.8c2.667.667 5.067 1.4 7.2 2.2a30.183 30.183 0 016 2.6v7.8zm-45.4-132.8c0-4.667 1.6-8.333 4.8-11 3.2-2.667 7.334-4 12.4-4 5.067 0 9.2 1.333 12.4 4 3.2 2.667 4.8 6.333 4.8 11 0 4.533-1.6 8.133-4.8 10.8-3.2 2.667-7.333 4-12.4 4-5.066 0-9.2-1.333-12.4-4-3.2-2.667-4.8-6.267-4.8-10.8z" fill="#F8EEE4"/></svg>