<svg width="460" height="76" fill="none" xmlns="http://www.w3.org/2000/svg"><path d="M31.034 74.438H.458v-3.725c2.613-1.437 5.26-2.384 7.938-2.841V12.403c-1.307-.197-2.679-.556-4.116-1.079-1.437-.522-2.711-1.11-3.822-1.764V5.838h30.576V9.56a21.75 21.75 0 01-3.92 1.863 23.952 23.952 0 01-4.018.98V67.87c1.307.262 2.646.621 4.018 1.079a17.878 17.878 0 013.92 1.763v3.725zm64.883 0h-25.97v-3.823c.85-.457 1.666-.849 2.45-1.175.85-.392 1.83-.784 2.94-1.177v-23.03c0-4.115-.588-7.317-1.764-9.603-1.176-2.352-3.267-3.529-6.272-3.529-2.483 0-4.639.817-6.468 2.45-1.764 1.569-3.103 3.724-4.018 6.468v27.244c1.045.262 1.96.588 2.744.98.85.327 1.731.785 2.646 1.373v3.822h-25.97v-3.823c1.633-.849 3.79-1.633 6.468-2.352V32.395l-6.468-.784V27.79c.85-.392 1.96-.75 3.332-1.078a62.439 62.439 0 014.41-1.077 63.617 63.617 0 014.9-.785 81.264 81.264 0 014.606-.587h3.332v10.093h.098c1.372-2.743 3.43-5.095 6.174-7.055 2.744-2.026 6.076-3.038 9.996-3.038 2.548 0 4.835.326 6.86.98 2.025.587 3.724 1.665 5.096 3.233 1.437 1.569 2.515 3.692 3.234 6.37.784 2.614 1.176 5.946 1.176 9.997v23.421c2.613.458 4.77 1.242 6.468 2.352v3.823zm37.588-9.703a12.637 12.637 0 01-1.764 4.117 17.35 17.35 0 01-3.038 3.527 14.442 14.442 0 01-4.018 2.352c-1.502.589-3.103.883-4.802.883-6.468 0-11.4-2.026-14.798-6.077-3.332-4.116-4.998-10.388-4.998-18.816 0-4.311.588-8.068 1.764-11.27 1.176-3.266 2.81-6.01 4.9-8.232 2.156-2.22 4.737-3.887 7.742-4.998 3.006-1.11 6.338-1.666 9.996-1.666 1.176 0 2.156.033 2.94.099.85.065 1.601.163 2.254.294a6.167 6.167 0 011.96.49c.654.196 1.372.424 2.156.686V8.875l-7.448-.784V4.268c.915-.392 2.156-.75 3.724-1.078 1.634-.326 3.332-.62 5.096-.882 1.764-.326 3.496-.62 5.194-.882 1.699-.26 3.104-.49 4.214-.686h3.332V67.48l6.468.783v3.43c-.914.458-2.09.883-3.528 1.275-1.437.391-2.94.75-4.508 1.078a61.708 61.708 0 01-4.606.783 79.921 79.921 0 01-3.626.589h-3.332l-.882-10.683h-.392zm-8.918 3.038c2.287 0 4.214-.718 5.782-2.155 1.568-1.438 2.712-3.888 3.43-7.35V31.904c-.849-.522-1.927-.947-3.234-1.274-1.241-.326-2.809-.49-4.704-.49-3.789 0-6.5 1.732-8.134 5.195-1.633 3.397-2.45 8.362-2.45 14.895 0 5.292.719 9.54 2.156 12.74 1.438 3.202 3.822 4.803 7.154 4.803zm34.166-17.835c0-3.986.588-7.547 1.764-10.683 1.242-3.2 2.973-5.912 5.194-8.134 2.287-2.22 5.031-3.92 8.232-5.095 3.202-1.177 6.828-1.764 10.878-1.764 4.574 0 8.494.653 11.76 1.96 3.332 1.24 6.044 3.005 8.134 5.291 2.156 2.222 3.724 4.933 4.704 8.134.98 3.136 1.47 6.567 1.47 10.29 0 3.986-.588 7.58-1.764 10.78-1.176 3.136-2.907 5.815-5.194 8.037-2.221 2.22-4.965 3.92-8.232 5.096-3.201 1.175-6.827 1.764-10.878 1.764-4.442 0-8.297-.621-11.564-1.863-3.266-1.306-5.978-3.07-8.134-5.291-2.156-2.287-3.756-4.998-4.802-8.134-1.045-3.202-1.568-6.665-1.568-10.389zm15.19 0c0 2.94.164 5.65.49 8.133.392 2.418 1.046 4.476 1.96 6.175.915 1.698 2.156 3.038 3.724 4.017 1.568.915 3.594 1.372 6.076 1.372 1.438 0 2.744-.326 3.92-.98 1.176-.718 2.189-1.829 3.038-3.332.85-1.567 1.47-3.593 1.862-6.075.458-2.548.686-5.652.686-9.31 0-3.006-.196-5.717-.588-8.135-.326-2.417-.947-4.475-1.862-6.173-.849-1.7-2.025-3.006-3.528-3.92-1.502-.98-3.397-1.47-5.684-1.47-1.698 0-3.168.359-4.41 1.078-1.241.653-2.286 1.763-3.136 3.332-.849 1.502-1.502 3.528-1.96 6.075-.392 2.483-.588 5.554-.588 9.212zm101.896 24.5h-25.97v-3.823c.849-.457 1.666-.849 2.45-1.175a34.252 34.252 0 012.94-1.177v-23.03c0-4.115-.588-7.317-1.764-9.603-1.176-2.352-3.267-3.529-6.272-3.529-2.483 0-4.639.817-6.468 2.45-1.764 1.569-3.104 3.724-4.018 6.468v27.244c1.045.262 1.96.588 2.744.98.849.327 1.731.785 2.646 1.373v3.822h-25.97v-3.823c1.633-.849 3.789-1.633 6.468-2.352V32.395l-6.468-.784V27.79c.849-.392 1.96-.75 3.332-1.078a62.439 62.439 0 014.41-1.077 63.547 63.547 0 014.9-.785 81.195 81.195 0 014.606-.587h3.332v10.093h.098c1.372-2.743 3.43-5.095 6.174-7.055 2.744-2.026 6.076-3.038 9.996-3.038 2.548 0 4.835.326 6.86.98 2.025.587 3.724 1.665 5.096 3.233 1.437 1.569 2.515 3.692 3.234 6.37.784 2.614 1.176 5.946 1.176 9.997v23.421c2.613.458 4.769 1.242 6.468 2.352v3.823zm48.76-8.233c-.522 1.111-1.372 2.255-2.548 3.43-1.11 1.111-2.515 2.124-4.214 3.038-1.633.85-3.56 1.536-5.782 2.058-2.156.589-4.508.883-7.056.883-4.05 0-7.644-.589-10.78-1.764-3.136-1.242-5.749-2.973-7.84-5.194-2.09-2.287-3.691-4.999-4.802-8.135-1.045-3.136-1.568-6.663-1.568-10.584 0-8.362 2.189-14.732 6.566-19.11 4.378-4.377 10.454-6.566 18.228-6.566 3.332 0 6.436.458 9.31 1.373 2.94.914 5.358 2.417 7.252 4.508 1.96 2.09 3.3 4.834 4.018 8.232.784 3.397.752 7.545-.098 12.445h-30.086c.066 5.162 1.372 9.278 3.92 12.348 2.614 3.071 6.436 4.606 11.466 4.606 2.156 0 4.378-.326 6.664-.98 2.352-.653 4.182-1.502 5.488-2.547l1.862 1.96zm-20.188-36.358c-1.306 0-2.482.23-3.528.686-.98.458-1.862 1.307-2.646 2.548-.718 1.176-1.306 2.81-1.764 4.9-.457 2.026-.784 4.606-.98 7.742h15.778c.458-5.096.164-9.015-.882-11.76-1.045-2.744-3.038-4.116-5.978-4.116zm53.421 33.908c0-1.698-.621-3.168-1.862-4.41-1.176-1.24-2.679-2.384-4.508-3.43a80.159 80.159 0 00-5.88-3.136 38.353 38.353 0 01-5.88-3.626 21.867 21.867 0 01-4.508-4.997c-1.176-1.895-1.764-4.215-1.764-6.959 0-1.96.457-3.724 1.372-5.292a12.458 12.458 0 013.724-4.116c1.568-1.11 3.43-1.96 5.586-2.548 2.221-.653 4.606-.98 7.154-.98 3.528 0 6.795.294 9.8.883 3.071.522 5.749 1.274 8.036 2.254-.261 2.09-.784 4.344-1.568 6.762a230.865 230.865 0 01-2.254 6.468h-3.332l-4.116-9.997a7.907 7.907 0 00-2.45-.587 18.784 18.784 0 00-2.842-.197c-1.96 0-3.463.588-4.508 1.764-.98 1.111-1.47 2.385-1.47 3.823 0 1.633.588 3.07 1.764 4.312 1.241 1.175 2.744 2.286 4.508 3.331a120.004 120.004 0 005.88 3.137 32.958 32.958 0 015.88 3.626c1.829 1.306 3.332 2.874 4.508 4.703 1.241 1.83 1.862 4.019 1.862 6.566 0 4.509-1.829 8.07-5.488 10.682-3.659 2.549-8.559 3.823-14.7 3.823-3.136 0-6.37-.327-9.702-.98-3.332-.654-6.207-1.569-8.624-2.745.131-2.352.686-4.736 1.666-7.153.98-2.418 2.025-4.574 3.136-6.469h3.332l4.802 10.682c.719.523 1.503.85 2.352.98.915.066 1.764.099 2.548.099 1.895 0 3.626-.556 5.194-1.666 1.568-1.111 2.352-2.646 2.352-4.606zm46.172 10.682h-27.048v-3.822c.98-.522 1.993-.947 3.038-1.273a35.661 35.661 0 013.43-1.079V32.395l-6.468-.784V27.79c.98-.392 2.189-.784 3.626-1.176a49.84 49.84 0 014.704-.98 66.684 66.684 0 014.802-.784 77.623 77.623 0 014.116-.587h3.332v44.001c1.307.327 2.483.686 3.528 1.078 1.046.327 2.026.752 2.94 1.275v3.822zM381.758 9.365c0-2.286.784-4.083 2.352-5.39 1.568-1.306 3.594-1.96 6.076-1.96 2.483 0 4.508.654 6.076 1.96 1.568 1.307 2.352 3.104 2.352 5.39 0 2.222-.784 3.986-2.352 5.293-1.568 1.306-3.593 1.96-6.076 1.96-2.482 0-4.508-.654-6.076-1.96-1.568-1.307-2.352-3.071-2.352-5.292zm70.76 50.862v3.725c.065 1.045.163 2.156.294 3.332l6.762.98v3.43c-.784.391-1.862.784-3.234 1.175-1.307.392-2.712.784-4.214 1.177a49.883 49.883 0 01-4.312.783 62.665 62.665 0 01-3.822.589h-3.332c-.654-1.503-1.046-3.006-1.176-4.509-.131-1.502-.229-3.332-.294-5.488h-.49c-.327 1.307-.882 2.581-1.666 3.822-.784 1.177-1.797 2.255-3.038 3.235-1.176.914-2.581 1.666-4.214 2.254-1.634.588-3.463.882-5.488.882-2.156 0-4.149-.327-5.978-.98-1.83-.654-3.43-1.569-4.802-2.745a12.767 12.767 0 01-3.234-4.213c-.784-1.7-1.176-3.594-1.176-5.684 0-2.94.555-5.358 1.666-7.252 1.11-1.895 2.842-3.43 5.194-4.607 2.417-1.24 5.488-2.156 9.212-2.744 3.789-.588 8.362-1.012 13.72-1.274.522-5.618.294-9.734-.686-12.348-.98-2.613-3.104-3.92-6.37-3.92-2.026 0-3.888.327-5.586.98l-4.606 11.76h-4.312a31.255 31.255 0 01-1.568-2.646 155.434 155.434 0 01-1.372-3.233 71.88 71.88 0 01-1.078-3.529 33.914 33.914 0 01-.588-3.43c2.482-1.698 5.684-3.037 9.604-4.017 3.92-.98 8.068-1.47 12.446-1.47 3.724 0 6.762.424 9.114 1.273 2.352.785 4.181 1.895 5.488 3.332a10.918 10.918 0 012.842 4.9c.522 1.895.784 3.92.784 6.076 0 3.92-.098 7.481-.294 10.682-.131 3.136-.196 6.37-.196 9.703zm-22.05 7.547c1.372 0 2.548-.262 3.528-.784.98-.523 1.796-1.144 2.45-1.862.718-.72 1.241-1.503 1.568-2.352.392-.85.686-1.601.882-2.255v-9.8c-3.071.066-5.586.262-7.546.589-1.96.326-3.496.881-4.606 1.665-1.111.72-1.895 1.666-2.352 2.843-.392 1.11-.588 2.482-.588 4.116 0 2.482.588 4.41 1.764 5.782 1.176 1.372 2.809 2.058 4.9 2.058z" fill="#F8EEE4"/></svg>