<svg width="311" height="130" fill="none" xmlns="http://www.w3.org/2000/svg"><path opacity=".4" d="M.4 127.876v-6.46a46.791 46.791 0 016.8-3.23c2.493-.907 4.873-1.473 7.14-1.7v-96.22a66.873 66.873 0 01-7.14-1.87c-2.493-.907-4.76-1.927-6.8-3.06v-6.46h27.37c4.307 0 8.387-.17 12.24-.51 3.853-.34 8.273-.51 13.26-.51 5.44 0 10.71.397 15.81 1.19 5.1.793 9.633 2.21 13.6 4.25 3.967 2.04 7.14 4.93 9.52 8.67 2.38 3.627 3.57 8.33 3.57 14.11 0 3.627-.68 7.027-2.04 10.2-1.247 3.06-3.06 5.78-5.44 8.16-2.267 2.38-4.987 4.363-8.16 5.95-3.06 1.587-6.403 2.72-10.03 3.4v.68c3.627.453 7.253 1.303 10.88 2.55 3.74 1.247 7.083 3.06 10.03 5.44 2.947 2.38 5.327 5.383 7.14 9.01 1.927 3.513 2.89 7.707 2.89 12.58 0 6.12-1.36 11.39-4.08 15.81-2.72 4.42-6.403 8.047-11.05 10.88-4.533 2.833-9.747 4.93-15.64 6.29-5.893 1.247-12.013 1.87-18.36 1.87-2.38 0-4.987-.057-7.82-.17l-8.5-.34c-2.833-.113-5.61-.227-8.33-.34-2.607-.113-4.817-.17-6.63-.17H.4zm51.34-10.03c7.14 0 12.75-2.097 16.83-6.29 4.08-4.307 6.12-9.973 6.12-17 0-4.307-.68-7.82-2.04-10.54-1.36-2.833-3.23-5.043-5.61-6.63-2.38-1.7-5.213-2.833-8.5-3.4-3.287-.68-6.857-1.02-10.71-1.02h-9.01v43.69c1.587.34 3.23.623 4.93.85 1.813.227 4.477.34 7.99.34zm-7.48-55.93c1.927 0 3.853-.057 5.78-.17 1.927-.227 3.74-.453 5.44-.68 4.42-1.813 7.99-4.59 10.71-8.33 2.72-3.853 4.08-8.217 4.08-13.09 0-7.14-1.87-12.353-5.61-15.64-3.74-3.4-8.557-5.1-14.45-5.1-2.493 0-4.647.057-6.46.17a55.3 55.3 0 00-4.93.51v42.33h5.44zm143.04 41.31v6.46c.114 1.813.284 3.74.51 5.78l11.73 1.7v5.95c-1.36.68-3.23 1.36-5.61 2.04-2.266.68-4.703 1.36-7.31 2.04a86.238 86.238 0 01-7.48 1.36c-2.493.453-4.703.793-6.63 1.02h-5.78c-1.133-2.607-1.813-5.213-2.04-7.82-.226-2.607-.396-5.78-.51-9.52h-.85c-.566 2.267-1.53 4.477-2.89 6.63-1.36 2.04-3.116 3.91-5.27 5.61-2.04 1.587-4.476 2.89-7.31 3.91-2.833 1.02-6.006 1.53-9.52 1.53-3.74 0-7.196-.567-10.37-1.7-3.173-1.133-5.95-2.72-8.33-4.76a22.149 22.149 0 01-5.61-7.31c-1.36-2.947-2.04-6.233-2.04-9.86 0-5.1.964-9.293 2.89-12.58 1.927-3.287 4.93-5.95 9.01-7.99 4.194-2.153 9.52-3.74 15.98-4.76 6.574-1.02 14.507-1.757 23.8-2.21.907-9.747.51-16.887-1.19-21.42-1.7-4.533-5.383-6.8-11.05-6.8-3.513 0-6.743.567-9.69 1.7l-7.99 20.4h-7.48a54.956 54.956 0 01-2.72-4.59 285.4 285.4 0 01-2.38-5.61c-.68-2.04-1.303-4.08-1.87-6.12a59.68 59.68 0 01-1.02-5.95c4.307-2.947 9.86-5.27 16.66-6.97 6.8-1.7 13.997-2.55 21.59-2.55 6.46 0 11.73.737 15.81 2.21 4.08 1.36 7.254 3.287 9.52 5.78 2.38 2.38 4.024 5.213 4.93 8.5.907 3.287 1.36 6.8 1.36 10.54 0 6.8-.17 12.977-.51 18.53-.226 5.44-.34 11.05-.34 16.83zm-38.25 13.09c2.38 0 4.42-.453 6.12-1.36 1.7-.907 3.117-1.983 4.25-3.23 1.247-1.247 2.154-2.607 2.72-4.08.68-1.473 1.19-2.777 1.53-3.91v-17c-5.326.113-9.69.453-13.09 1.02-3.4.567-6.063 1.53-7.99 2.89-1.926 1.247-3.286 2.89-4.08 4.93-.68 1.927-1.02 4.307-1.02 7.14 0 4.307 1.02 7.65 3.06 10.03 2.04 2.38 4.874 3.57 8.5 3.57zm105.169 11.56h-46.92v-6.63c3.74-1.813 7.48-3.173 11.22-4.08V14.146l-12.92-1.36v-6.63c1.474-.68 3.514-1.36 6.12-2.04a83.118 83.118 0 018.33-1.7c3.06-.567 6.064-1.02 9.01-1.36 3.06-.453 5.78-.793 8.16-1.02h5.78v117.13c3.74.907 7.48 2.267 11.22 4.08v6.63zm56.446 0h-46.92v-6.63a30.505 30.505 0 015.27-2.21 61.696 61.696 0 015.95-1.87v-62.22l-11.22-1.36v-6.63c1.7-.68 3.796-1.36 6.29-2.04a86.3 86.3 0 018.16-1.7c2.833-.567 5.61-1.02 8.33-1.36 2.72-.453 5.1-.793 7.14-1.02h5.78v76.33c2.266.567 4.306 1.19 6.12 1.87a25.7 25.7 0 015.1 2.21v6.63zm-38.59-112.88c0-3.967 1.36-7.083 4.08-9.35 2.72-2.267 6.233-3.4 10.54-3.4 4.306 0 7.82 1.133 10.54 3.4 2.72 2.267 4.08 5.383 4.08 9.35 0 3.853-1.36 6.913-4.08 9.18-2.72 2.267-6.234 3.4-10.54 3.4-4.307 0-7.82-1.133-10.54-3.4-2.72-2.267-4.08-5.327-4.08-9.18z" fill="#F8EEE4"/></svg>